HIERARCHY
ROOT Hips
{
	OFFSET 0.000000 0.000000 0.000000
	CHANNELS 6 Xposition Yposition Zposition Xrotation Yrotation Zrotation
	JOINT LeftUpLeg_virtual
	{
		OFFSET 0.000000 0.000000 0.000000
		CHANNELS 3 Xrotation Yrotation Zrotation
		JOINT LeftUpLeg
		{
			OFFSET 10.205400 -3.823500 0.155100
			CHANNELS 3 Xrotation Yrotation Zrotation
			JOINT LeftLeg
			{
				OFFSET 0.708757 -12.982077 0.567790
				CHANNELS 3 Xrotation Yrotation Zrotation
				JOINT LeftFoot
				{
					OFFSET -0.708756 -10.717838 -2.184338
					CHANNELS 3 Xrotation Yrotation Zrotation
					JOINT LeftToeBase
					{
						OFFSET 0.108149 -7.191104 7.560241
						CHANNELS 3 Xrotation Yrotation Zrotation
						JOINT LeftToe_End
						{
							OFFSET 0.070230 0.081724 4.490308
							CHANNELS 3 Xrotation Yrotation Zrotation
							End Site
							{
								OFFSET 0 0 0
							}
						}
					}
				}
			}
		}
	}
	JOINT RightUpLeg_virtual
	{
		OFFSET 0.000000 0.000000 0.000000
		CHANNELS 3 Xrotation Yrotation Zrotation
		JOINT RightUpLeg
		{
			OFFSET -10.205400 -3.823500 0.005500
			CHANNELS 3 Xrotation Yrotation Zrotation
			JOINT RightLeg
			{
				OFFSET -0.708756 -12.982134 0.610632
				CHANNELS 3 Xrotation Yrotation Zrotation
				JOINT RightFoot
				{
					OFFSET 0.708754 -10.717769 -1.945823
					CHANNELS 3 Xrotation Yrotation Zrotation
					JOINT RightToeBase
					{
						OFFSET -0.108140 -7.191069 7.372968
						CHANNELS 3 Xrotation Yrotation Zrotation
						JOINT RightToe_End
						{
							OFFSET -0.070227 0.081735 4.479403
							CHANNELS 3 Xrotation Yrotation Zrotation
							End Site
							{
								OFFSET 0 0 0
							}
						}
					}
				}
			}
		}
	}
	JOINT Spine_virtual
	{
		OFFSET 0.000000 0.000000 0.000000
		CHANNELS 3 Xrotation Yrotation Zrotation
		JOINT Spine
		{
			OFFSET 0.000000 6.876099 0.125700
			CHANNELS 3 Xrotation Yrotation Zrotation
			JOINT Spine1
			{
				OFFSET 0.000000 5.730043 0.104720
				CHANNELS 3 Xrotation Yrotation Zrotation
				JOINT Spine1_split
				{
					OFFSET 0.000000 5.730043 0.104720
					CHANNELS 3 Xrotation Yrotation Zrotation
					JOINT Spine2
					{
						OFFSET 0.000000 5.730043 0.104720
						CHANNELS 3 Xrotation Yrotation Zrotation
						JOINT Neck_virtual
						{
							OFFSET 0.000000 0.000000 0.000000
							CHANNELS 3 Xrotation Yrotation Zrotation
							JOINT Neck
							{
								OFFSET 0.000000 10.314075 0.188496
								CHANNELS 3 Xrotation Yrotation Zrotation
								JOINT Head
								{
									OFFSET 0.000000 7.643700 -2.377400
									CHANNELS 3 Xrotation Yrotation Zrotation
									JOINT HeadTop_End
									{
										OFFSET 0.000000 43.788605 -13.619600
										CHANNELS 3 Xrotation Yrotation Zrotation
										End Site
										{
											OFFSET 0 0 0
										}
									}
								}
							}
						}
						JOINT LeftShoulder_virtual
						{
							OFFSET 0.000000 0.000000 0.000000
							CHANNELS 3 Xrotation Yrotation Zrotation
							JOINT LeftShoulder
							{
								OFFSET 2.196100 4.412489 0.087492
								CHANNELS 3 Xrotation Yrotation Zrotation
								JOINT LeftShoulder_split
								{
									OFFSET 2.196100 4.412489 0.087492
									CHANNELS 3 Xrotation Yrotation Zrotation
									JOINT LeftArm
									{
										OFFSET 8.771219 -2.981674 -0.026999
										CHANNELS 3 Xrotation Yrotation Zrotation
										JOINT LeftForeArm
										{
											OFFSET 8.512804 0.000000 -0.000000
											CHANNELS 3 Xrotation Yrotation Zrotation
											JOINT LeftHand
											{
												OFFSET 18.484802 0.000000 -0.000000
												CHANNELS 3 Xrotation Yrotation Zrotation
												End Site
												{
													OFFSET 0 0 0
												}
											}
										}
									}
								}
							}
						}
						JOINT RightShoulder_virtual
						{
							OFFSET 0.000000 0.000000 0.000000
							CHANNELS 3 Xrotation Yrotation Zrotation
							JOINT RightShoulder
							{
								OFFSET -2.196100 4.412496 0.070690
								CHANNELS 3 Xrotation Yrotation Zrotation
								JOINT RightShoulder_split
								{
									OFFSET -2.196100 4.412496 0.070690
									CHANNELS 3 Xrotation Yrotation Zrotation
									JOINT RightArm
									{
										OFFSET -8.771282 -2.981682 -0.094208
										CHANNELS 3 Xrotation Yrotation Zrotation
										JOINT RightForeArm
										{
											OFFSET -8.494598 0.000000 0.000000
											CHANNELS 3 Xrotation Yrotation Zrotation
											JOINT RightHand
											{
												OFFSET -18.483803 0.000000 0.000001
												CHANNELS 3 Xrotation Yrotation Zrotation
												End Site
												{
													OFFSET 0 0 0
												}
											}
										}
									}
								}
							}
						}
					}
				}
			}
		}
	}
}
MOTION
Frames: 8
Frame Time: 0.03333333
0.633378 28.598621 -0.651501 0.000000 0.000000 0.000000 9.498704 -61.495745 10.123792 -41.997064 3.737984 34.587176 44.710948 -12.160024 0.011919 -7.405625 0.862329 -25.257293 -1.836443 -0.000620 -0.000033 0.000000 0.000000 0.000000 9.498704 -61.495745 10.123792 -27.932154 -15.141247 -45.129628 44.470272 11.514591 -2.760091 -21.028593 -6.256160 32.366067 -0.001645 -0.000369 0.000017 0.000000 0.000000 0.000000 9.498704 -61.495745 10.123792 15.067411 -0.446931 -4.264669 5.872806 0.571265 -2.801484 0.000000 0.000000 0.000000 0.000000 0.000000 0.000000 5.868634 0.648866 -2.855441 -3.636310 1.441459 3.747636 -20.003652 54.833117 2.408457 0.000000 0.000000 0.000000 5.868634 0.648866 -2.855441 1.829294 -3.192746 -12.271736 0.000000 0.000000 0.000000 -39.386716 26.350118 -34.912003 0.430049 -46.810152 0.421451 0.000000 0.000000 0.000000 5.868634 0.648866 -2.855441 0.631529 7.257366 8.703766 0.000000 0.000000 0.000000 7.936914 -9.680962 53.430808 -22.866915 36.192192 17.964140 0.000000 0.000000 0.000000 
0.690475 28.604965 -0.664391 0.000000 0.000000 0.000000 7.360383 -62.404194 7.655271 -40.963984 3.737036 35.855846 45.593999 -12.063420 0.004237 -8.205028 0.632001 -25.438773 -1.836440 -0.000623 -0.000035 0.000000 0.000000 0.000000 7.360383 -62.404194 7.655271 -27.435347 -15.572924 -44.500506 43.988764 12.777584 -2.687586 -20.443694 -6.336565 31.533228 -0.001648 -0.000370 0.000017 0.000000 0.000000 0.000000 7.360383 -62.404194 7.655271 14.765570 -0.412793 -4.199103 5.731445 0.497497 -2.601732 0.000000 0.000000 0.000000 0.000000 0.000000 0.000000 5.728712 0.572364 -2.640770 -3.172948 1.885440 3.612997 -19.015351 55.489966 2.614357 0.000000 0.000000 0.000000 5.728712 0.572364 -2.640770 1.753328 -3.032287 -12.822557 0.000000 0.000000 0.000000 -32.213839 23.425715 -33.713506 0.377252 -47.042870 0.374144 0.000000 0.000000 0.000000 5.728712 0.572364 -2.640770 -1.447327 6.161781 8.633030 0.000000 0.000000 0.000000 9.394069 -10.760406 54.077101 -22.572457 37.039484 17.841282 0.000000 0.000000 0.000000 
0.752253 28.600628 -0.661573 0.000000 0.000000 0.000000 4.826144 -64.194844 4.712663 -39.468255 4.431972 37.886520 46.793787 -12.860842 -0.068166 -9.631547 1.302488 -25.477145 -1.836440 -0.000621 -0.000032 0.000000 0.000000 0.000000 4.826144 -64.194844 4.712663 -27.065362 -15.076934 -43.382838 43.685415 13.233597 -2.695102 -19.559722 -5.563477 30.976742 -0.001647 -0.000370 0.000017 0.000000 0.000000 0.000000 4.826144 -64.194844 4.712663 13.956090 -0.301679 -3.979310 5.353494 0.303631 -2.121740 0.000000 0.000000 0.000000 0.000000 0.000000 0.000000 5.354809 0.371086 -2.125153 -1.988712 2.953753 3.321220 -16.574772 56.788324 1.558025 0.000000 0.000000 0.000000 5.354809 0.371086 -2.125153 1.574580 -2.619409 -14.233965 0.000000 0.000000 0.000000 -23.554766 21.210106 -31.551915 0.317808 -45.950784 0.284440 0.000000 0.000000 0.000000 5.354809 0.371086 -2.125153 -6.616055 4.584728 8.134641 0.000000 0.000000 0.000000 12.017108 -15.513287 54.328998 -22.066051 40.056580 17.908648 0.000000 0.000000 0.000000 
0.807924 28.560532 -0.645481 0.000000 0.000000 0.000000 1.916646 -66.006354 1.368472 -37.961614 5.164690 40.057209 48.152618 -13.361933 -0.123016 -11.225033 1.664445 -25.634578 -1.836439 -0.000621 -0.000035 0.000000 0.000000 0.000000 1.916646 -66.006354 1.368472 -26.695661 -14.373206 -42.258333 43.560641 13.007013 -2.745380 -18.754178 -4.239079 30.764903 -0.001649 -0.000370 0.000017 0.000000 0.000000 0.000000 1.916646 -66.006354 1.368472 12.782372 -0.136712 -3.657040 4.817284 0.032699 -1.533442 0.000000 0.000000 0.000000 0.000000 0.000000 0.000000 4.825451 0.088637 -1.493714 -0.461113 4.255978 2.996343 -12.491222 57.994016 -0.748453 0.000000 0.000000 0.000000 4.825451 0.088637 -1.493714 1.361645 -2.056926 -16.145220 0.000000 0.000000 0.000000 -14.072013 19.876253 -29.334020 1.242856 -45.264114 0.950480 0.000000 0.000000 0.000000 4.825451 0.088637 -1.493714 -12.957636 2.831214 7.045976 0.000000 0.000000 0.000000 14.698082 -23.427008 54.643682 -22.088823 46.016525 18.937582 0.000000 0.000000 0.000000 
0.849253 28.466160 -0.628284 0.000000 0.000000 0.000000 -0.911088 -66.997558 -1.869087 -36.962166 5.168314 41.692110 49.660444 -13.418560 -0.134634 -12.543366 1.571655 -25.897649 -1.836439 -0.000621 -0.000031 0.000000 0.000000 0.000000 -0.911088 -66.997558 -1.869087 -26.208915 -14.146818 -41.584114 43.692846 12.405955 -2.800930 -18.453096 -2.846827 30.858901 -0.001647 -0.000370 0.000017 0.000000 0.000000 0.000000 -0.911088 -66.997558 -1.869087 11.387428 0.065265 -3.288840 4.197313 -0.272394 -1.008445 0.000000 0.000000 0.000000 0.000000 0.000000 0.000000 4.213911 -0.231033 -0.930954 1.018357 5.398512 2.761668 -7.364908 58.437330 -3.637111 0.000000 0.000000 0.000000 4.213911 -0.231033 -0.930954 1.169324 -1.448920 -18.194449 0.000000 0.000000 0.000000 -5.301437 19.592031 -27.056514 -3.385297 -46.469172 -2.582875 0.000000 0.000000 0.000000 4.213911 -0.231033 -0.930954 -18.697318 1.094376 5.824784 0.000000 0.000000 0.000000 16.315071 -34.455729 54.887930 -24.209969 55.678138 22.427490 0.000000 0.000000 0.000000 
0.844743 28.302101 -0.632811 0.000000 0.000000 0.000000 -1.321641 -66.112037 -2.558984 -37.680627 3.509779 41.703906 51.190485 -13.083343 -0.079685 -12.873810 1.064452 -26.100417 -1.836443 -0.000626 -0.000035 0.000000 0.000000 0.000000 -1.321641 -66.112037 -2.558984 -26.098651 -15.259061 -42.089094 44.394864 13.187241 -2.740591 -19.242017 -3.223756 30.638091 -0.001653 -0.000371 0.000017 0.000000 0.000000 0.000000 -1.321641 -66.112037 -2.558984 9.914878 0.268607 -2.929070 3.559649 -0.568142 -0.719004 0.000000 0.000000 0.000000 0.000000 0.000000 0.000000 3.585253 -0.544158 -0.622272 2.043452 5.991517 2.744883 -3.642355 57.390084 -5.400873 0.000000 0.000000 0.000000 3.585253 -0.544158 -0.622272 1.024873 -0.897494 -20.018842 0.000000 0.000000 0.000000 1.666441 18.947015 -24.481910 0.071833 -49.922303 0.136632 0.000000 0.000000 0.000000 3.585253 -0.544158 -0.622272 -24.709160 -1.482492 5.726005 0.000000 0.000000 0.000000 15.722040 -52.034369 53.736643 -40.987446 72.513550 41.190453 0.000000 0.000000 0.000000 
0.790917 28.058949 -0.659538 0.000000 0.000000 0.000000 0.990791 -64.293520 -0.319217 -40.051960 1.272201 40.600646 52.591299 -12.540595 0.010564 -12.523959 0.263524 -26.258772 -1.836441 -0.000624 -0.000034 0.000000 0.000000 0.000000 0.990791 -64.293520 -0.319217 -27.112993 -16.534693 -43.527918 46.148993 15.484160 -2.573375 -20.965117 -5.348067 29.855109 -0.001648 -0.000370 0.000017 0.000000 0.000000 0.000000 0.990791 -64.293520 -0.319217 8.508683 0.485427 -2.576241 2.968393 -0.811514 -0.834596 0.000000 0.000000 0.000000 0.000000 0.000000 0.000000 3.001182 -0.804944 -0.749576 2.586737 5.974597 2.961580 -2.977493 55.897770 -5.094461 0.000000 0.000000 0.000000 3.001182 -0.804944 -0.749576 0.930189 -0.501399 -21.253232 0.000000 0.000000 0.000000 4.965799 18.650504 -21.455258 -0.096761 -54.733817 0.071501 0.000000 0.000000 0.000000 3.001182 -0.804944 -0.749576 -31.215115 -4.382837 4.050056 0.000000 0.000000 0.000000 0.308038 -70.247703 44.498211 -130.093602 78.095270 131.310523 0.000000 0.000000 0.000000 
0.778940 27.769363 -0.744780 0.000000 0.000000 0.000000 2.080311 -61.898904 0.738825 -42.456480 -1.518550 39.165596 53.919706 -11.454501 0.139714 -11.703562 -1.186925 -26.667905 -1.836444 -0.000626 -0.000034 0.000000 0.000000 0.000000 2.080311 -61.898904 0.738825 -27.421958 -18.137321 -45.176346 48.049944 16.083306 -2.467914 -23.060739 -6.141793 29.811652 -0.001649 -0.000370 0.000017 0.000000 0.000000 0.000000 2.080311 -61.898904 0.738825 7.311731 0.734425 -2.157349 2.500488 -0.900979 -1.151840 0.000000 0.000000 0.000000 0.000000 0.000000 0.000000 2.537223 -0.908614 -1.094436 2.893894 5.619165 3.309502 -2.428835 53.765023 -4.314035 0.000000 0.000000 0.000000 2.537223 -0.908614 -1.094436 0.880749 -0.454121 -21.112304 0.000000 0.000000 0.000000 4.638083 18.121733 -19.373444 -0.317706 -59.789311 -0.050827 0.000000 0.000000 0.000000 2.537223 -0.908614 -1.094436 -36.549780 -4.603973 -0.740023 0.000000 0.000000 0.000000 -50.456062 -79.847466 1.559930 -164.925395 62.947747 166.194185 0.000000 0.000000 0.000000 
